<svg xmlns="http://www.w3.org/2000/svg" width="74.246" height="73.599" viewBox="0 0 74.246 73.599">
  <path id="Path_14" data-name="Path 14" d="M1555,.413a37.1,37.1,0,0,1-1.6,11.392,37.339,37.339,0,0,1-5.1,10.376,37.652,37.652,0,0,1-8.27,8.088,37.377,37.377,0,0,1-10.221,5.448c-3.553,1.154-7.534.676-11.471.676s-7.8.127-11.357-1.026a36.865,36.865,0,0,1-10.241-5.227,36.837,36.837,0,0,1-7.787-8.379,35.8,35.8,0,0,1-4.834-10.23c-1.154-3.553-2.362-7.181-2.362-11.119a36.16,36.16,0,0,1,2.108-11.2c1.2-3.682,2.351-7.451,4.582-10.516,2.253-3.1,5.6-5.2,8.7-7.451,3.065-2.231,6.133-4.645,9.816-5.84a36.974,36.974,0,0,1,11.375-1.534,36.2,36.2,0,0,1,11.216,2.022c3.682,1.2,7.5,2.316,10.561,4.546a37.9,37.9,0,0,1,8.267,8.146,37.569,37.569,0,0,1,5.183,10.382A37.415,37.415,0,0,1,1555,.413Z" transform="translate(-1481.254 36.63)" fill="none" stroke="#ef7663" stroke-miterlimit="10" stroke-width="1"/>
</svg>
