<svg id="Group_88" data-name="Group 88" xmlns="http://www.w3.org/2000/svg" width="57" height="57" viewBox="0 0 57 57">
  <circle id="Ellipse_7" data-name="Ellipse 7" cx="28.5" cy="28.5" r="28.5" fill="#f0f0f0"/>
  <path id="Path_21" data-name="Path 21" d="M561.213,343.9a16.494,16.494,0,1,0,14.921,14.92A16.51,16.51,0,0,0,561.213,343.9Zm9.34,8.3a13.485,13.485,0,0,1,2.693,7.408.254.254,0,0,1-.306.258,24.844,24.844,0,0,0-8.568-.333.25.25,0,0,1-.266-.151c-.307-.731-.623-1.435-.943-2.115a.249.249,0,0,1,.124-.333,22.882,22.882,0,0,0,6.885-4.756A.252.252,0,0,1,570.553,352.2Zm-2.418-2.129a19.87,19.87,0,0,1-6.184,4.278.257.257,0,0,1-.327-.112,52.162,52.162,0,0,0-4.462-6.854.254.254,0,0,1,.153-.4,13.539,13.539,0,0,1,10.8,2.712A.259.259,0,0,1,568.135,350.074Zm-14.066-1.864a47.247,47.247,0,0,1,4.734,6.975.257.257,0,0,1-.148.372,49.134,49.134,0,0,1-11.8,1.625.257.257,0,0,1-.26-.318,13.619,13.619,0,0,1,7.162-8.719A.255.255,0,0,1,554.069,348.21ZM546.4,360.132a51.1,51.1,0,0,0,13.7-1.975.249.249,0,0,1,.3.129q.39.819.767,1.691a.252.252,0,0,1-.154.341c-4.279,1.39-8.095,4.217-11.5,8.5a.254.254,0,0,1-.384.019,12.777,12.777,0,0,1-2.981-8.45A.256.256,0,0,1,546.4,360.132Zm5.226,10.747c3.143-4.028,6.6-6.624,10.506-7.837a.256.256,0,0,1,.317.157,51.9,51.9,0,0,1,2.4,9.459.259.259,0,0,1-.157.28,13.524,13.524,0,0,1-13.02-1.694A.259.259,0,0,1,551.627,370.879Zm15.907.058a54.6,54.6,0,0,0-2.167-8.262.252.252,0,0,1,.211-.334,22.681,22.681,0,0,1,7.2.491.26.26,0,0,1,.2.3,13.584,13.584,0,0,1-5.039,7.963A.254.254,0,0,1,567.534,370.937Z" transform="translate(-531.216 -331.837)" fill="#ef7663"/>
</svg>
