<svg xmlns="http://www.w3.org/2000/svg" width="57" height="57" viewBox="0 0 57 57">
  <g id="Group_90" data-name="Group 90" transform="translate(1999 -792)">
    <circle id="Ellipse_20" data-name="Ellipse 20" cx="28.5" cy="28.5" r="28.5" transform="translate(-1999 792)" fill="#f0f0f0"/>
    <g id="Group_89" data-name="Group 89" transform="translate(-1981.966 814.528)">
      <g id="Group_65" data-name="Group 65" transform="translate(0)">
        <path id="Path_22" data-name="Path 22" d="M650.912,295.784v8.255a.367.367,0,0,1-.365.369h-4.219a.367.367,0,0,1-.365-.369v-7.677c0-2.02-.715-3.4-2.507-3.4a2.711,2.711,0,0,0-2.539,1.828,3.454,3.454,0,0,0-.164,1.219v8.03a.368.368,0,0,1-.366.369H636.17a.366.366,0,0,1-.365-.369c.01-2.045.052-11.965.009-14.3a.365.365,0,0,1,.365-.374h4.209a.367.367,0,0,1,.365.369V291.5c-.01.017-.024.033-.033.049h.033V291.5a4.908,4.908,0,0,1,4.461-2.484c3.256,0,5.7,2.15,5.7,6.768Zm-22.429,8.625H632.7a.367.367,0,0,0,.365-.369v-14.3a.367.367,0,0,0-.365-.369h-4.217a.367.367,0,0,0-.365.369v14.3A.367.367,0,0,0,628.483,304.409Z" transform="translate(-628.118 -289.016)" fill="#ef7663"/>
      </g>
    </g>
    <ellipse id="Ellipse_21" data-name="Ellipse 21" cx="2.649" cy="2.677" rx="2.649" ry="2.677" transform="translate(-1982.29 807.615)" fill="#ef7663"/>
  </g>
</svg>
