<svg id="Layer_1" data-name="Layer 1" xmlns="http://www.w3.org/2000/svg" width="32.785" height="39.731" viewBox="0 0 32.785 39.731">
  <path id="Path_25" data-name="Path 25" d="M33.507,14.13l-.077-.07h0Z" transform="translate(-21.662 -9.133)" fill="#20386e"/>
  <path id="Path_26" data-name="Path 26" d="M74.921,72.23h0l-.391-.38a5.113,5.113,0,0,1,.384.352Z" transform="translate(-48.296 -46.582)" fill="#20386e"/>
  <path id="Path_27" data-name="Path 27" d="M74.874,72.222a5.116,5.116,0,0,0-.384-.352l.391.4h0Z" transform="translate(-48.27 -46.595)" fill="#20386e"/>
  <path id="Path_28" data-name="Path 28" d="M55.1,22.968,51.88,26.193,40.831,15.144h0A8.856,8.856,0,0,1,52.464,1.849a1.056,1.056,0,0,1,.1,1.566L50.94,5.038a1.313,1.313,0,0,1-1.612.183,4.252,4.252,0,0,0-2.218-.605,4.308,4.308,0,0,0-4.1,5.579,4.111,4.111,0,0,0,1.056,1.725h0Z" transform="translate(-24.801 -0.062)" fill="#20386e"/>
  <circle id="Ellipse_19" data-name="Ellipse 19" cx="3.879" cy="3.879" r="3.879" transform="translate(5.738 16.078)" fill="#20386e"/>
  <path id="Path_29" data-name="Path 29" d="M29.83,58.244a10.158,10.158,0,0,0-14.343-.021L.3,73.393a1.017,1.017,0,0,0,.239,1.619,4.576,4.576,0,0,0,5.385-.788l5.135-5.083-.018-.025,7.121-7.061s.352-.412.539-.6a5.582,5.582,0,1,1-1.116,6.336,1.521,1.521,0,0,0-2.464-.451l-.929.929a1.887,1.887,0,0,0-.317,2.281,10.151,10.151,0,1,0,15.945-12.3Z" transform="translate(0.002 -35.837)" fill="#20386e"/>
</svg>
